<?xml version="1.0" encoding="UTF-8"?><svg id="Layer_1" xmlns="http://www.w3.org/2000/svg" viewBox="0 0 72 72"><defs><style>.cls-1{fill:#f47b29;}</style></defs><path class="cls-1" d="M50.85,47.22l-12.37-3.41v-2.51h-1.5v-1.32h1.5v-2.6h-1.5v-1.32h1.5v-2.46l6.73-3.89v-10.66l-9.23-5.33-9.23,5.33v10.66l6.73,3.89v2.46h1.5v1.32h-1.5v2.6h1.5v1.32h-1.5v2.51l-12.37,3.41-1.1,8.09,1.49.2.96-7.1,11.3-3.11-4.78,5.39-.7,7.45,1.49.14.66-6.96,5.54-6.25,5.54,6.25.64,6.96,1.49-.14-.69-7.45-4.78-5.39,11.3,3.11.99,7.32,1.49-.2-1.13-8.3ZM36.82,24.77l5.84-3.42v6.82l-5.91,3.41.06-6.81Z"/></svg>