<?xml version="1.0" encoding="UTF-8"?><svg id="Layer_1" xmlns="http://www.w3.org/2000/svg" viewBox="0 0 72 72"><path d="M36,8.99c-14.92,0-27.01,12.09-27.01,27.01s12.09,27.02,27.01,27.02,27.02-12.1,27.02-27.02-12.1-27.01-27.02-27.01ZM36.03,16.16c10.6,0,19.26,8.36,19.78,18.84h-3c-.52-8.82-7.84-15.84-16.78-15.84-2.69,0-5.23.65-7.49,1.78l-1.5-2.6c2.7-1.38,5.75-2.18,8.99-2.18ZM43.64,24.7l.48-.84c3.9,2.63,6.47,7.09,6.47,12.13s-2.55,9.47-6.42,12.1l-.48-.84c3.59-2.46,5.94-6.59,5.94-11.26s-2.38-8.84-5.99-11.3ZM22.37,37c.52,7.07,6.41,12.66,13.61,12.66,2.15,0,4.17-.51,5.98-1.4l.48.84c-1.95.97-4.14,1.53-6.47,1.53-7.73,0-14.06-6.03-14.57-13.62h.96ZM21.4,35c.52-7.6,6.85-13.62,14.57-13.62,2.3,0,4.47.55,6.41,1.5l-.48.84c-1.8-.87-3.8-1.37-5.93-1.37-7.19,0-13.09,5.6-13.61,12.66h-.96ZM25.26,52.63c-5.45-3.54-9.07-9.67-9.07-16.63s3.64-13.12,9.11-16.66l1.5,2.59c-4.58,3.01-7.61,8.19-7.61,14.07s3.01,11.02,7.57,14.04l-1.5,2.59ZM36.03,55.84c-3.26,0-6.32-.8-9.04-2.2l1.5-2.6c2.27,1.14,4.82,1.8,7.53,1.8,8.95,0,16.26-7.02,16.78-15.83h3c-.53,10.47-9.18,18.83-19.78,18.83Z"/></svg>