<?xml version="1.0" encoding="UTF-8"?><svg id="Layer_1" xmlns="http://www.w3.org/2000/svg" viewBox="0 0 72 72"><defs><style>.cls-1{fill:#9ecb3b;}</style></defs><path class="cls-1" d="M54.5,40.43v-8.85l-1.83-1.83,2.9-2.9-1.41-1.41-2.9,2.9-1.59-1.59,2.9-2.9-1.41-1.41-2.9,2.9-1.59-1.59,2.9-2.9-1.41-1.41-2.9,2.9-1.59-1.59,2.9-2.9-1.41-1.41-2.9,2.9-1.83-1.83h-8.85l-1.83,1.83-2.9-2.9-1.41,1.41,2.9,2.9-1.59,1.59-2.9-2.9-1.41,1.41,2.9,2.9-1.59,1.59-2.9-2.9-1.41,1.41,2.9,2.9-1.59,1.59-2.9-2.9-1.41,1.41,2.9,2.9-1.83,1.83v8.85l1.83,1.83-2.9,2.9,1.41,1.41,2.9-2.9,1.59,1.59-2.9,2.9,1.41,1.41,2.9-2.9,1.59,1.59-2.9,2.9,1.41,1.41,2.9-2.9,1.59,1.59-2.9,2.9,1.41,1.41,2.9-2.9,1.83,1.83h8.85l1.83-1.83,2.9,2.9,1.41-1.41-2.9-2.9,1.59-1.59,2.9,2.9,1.41-1.41-2.9-2.9,1.59-1.59,2.9,2.9,1.41-1.41-2.9-2.9,1.59-1.59,2.9,2.9,1.41-1.41-2.9-2.9,1.83-1.83ZM36,48.72c-7.02,0-12.72-5.69-12.72-12.72s5.69-12.72,12.72-12.72,12.72,5.69,12.72,12.72-5.69,12.72-12.72,12.72Z"/><polygon class="cls-1" points="38.64 40.05 40.05 38.64 41.42 40.01 43.61 37.82 43.61 34.18 41.42 31.99 40.05 33.36 38.64 31.95 40.01 30.58 37.82 28.39 34.18 28.39 31.99 30.58 33.36 31.95 31.95 33.36 30.58 31.99 28.39 34.18 28.39 37.82 30.58 40.01 31.95 38.64 33.36 40.05 31.99 41.42 34.18 43.61 37.82 43.61 40.01 41.42 38.64 40.05"/></svg>