<?xml version="1.0" encoding="UTF-8"?><svg id="Layer_1" xmlns="http://www.w3.org/2000/svg" viewBox="0 0 72 72"><path d="M22.37,35c.52-7.07,6.41-12.66,13.61-12.66,2.13,0,4.14.5,5.93,1.37l.48-.84c-1.94-.95-4.11-1.5-6.41-1.5-7.73,0-14.06,6.03-14.57,13.62h.96Z"/><path d="M44.13,23.87l-.48.84c3.61,2.46,5.99,6.61,5.99,11.3s-2.36,8.8-5.94,11.26l.48.84c3.87-2.63,6.42-7.07,6.42-12.1s-2.57-9.5-6.47-12.13Z"/><path d="M41.96,48.26c-1.81.89-3.84,1.4-5.98,1.4-7.19,0-13.09-5.59-13.61-12.66h-.96c.52,7.6,6.85,13.62,14.57,13.62,2.32,0,4.51-.56,6.47-1.53l-.48-.84Z"/><path d="M28.54,20.94c2.26-1.13,4.8-1.78,7.49-1.78,8.95,0,16.26,7.02,16.78,15.84h3c-.53-10.47-9.18-18.84-19.78-18.84-3.24,0-6.29.8-8.99,2.18l1.5,2.6Z"/><path d="M26.76,50.04c-4.55-3.02-7.57-8.18-7.57-14.04s3.03-11.05,7.61-14.07l-1.5-2.59c-5.47,3.54-9.11,9.68-9.11,16.66s3.62,13.1,9.07,16.63l1.5-2.59Z"/><path d="M52.81,37c-.52,8.82-7.84,15.83-16.78,15.83-2.71,0-5.26-.66-7.53-1.8l-1.5,2.6c2.71,1.4,5.78,2.2,9.04,2.2,10.6,0,19.26-8.36,19.78-18.83h-3Z"/></svg>