<?xml version="1.0" encoding="UTF-8"?><svg id="Layer_1" xmlns="http://www.w3.org/2000/svg" viewBox="0 0 72 72"><defs><style>.cls-1{fill:#744e9f;}</style></defs><path class="cls-1" d="M23.79,30.94l2.01-2.01-2.53-2.53,1.29-1.29,2.53,2.53.56-.56-2.53-2.53,1.29-1.29,2.53,2.53,2.01-2.01h1.23v-6.3c-7.36,1.52-13.17,7.33-14.69,14.69h6.3v-1.23Z"/><path class="cls-1" d="M48.2,41.06l-2.01,2.01,2.53,2.53-1.29,1.29-2.53-2.53-.56.56,2.53,2.53-1.29,1.29-2.53-2.53-2.01,2.01h-1.23v6.3c7.36-1.52,13.17-7.33,14.69-14.69h-6.31v1.23Z"/><path class="cls-1" d="M28.94,46.2l-2.53,2.53-1.29-1.29,2.53-2.53-.56-.56-2.53,2.53-1.29-1.29,2.53-2.53-2.01-2.01v-1.23h-6.3c1.52,7.36,7.33,13.17,14.69,14.69v-6.3h-1.23l-2.01-2.01Z"/><path class="cls-1" d="M43.06,25.8l2.53-2.53,1.29,1.29-2.53,2.53.56.56,2.53-2.53,1.29,1.29-2.53,2.53,2.01,2.01v1.23h6.31c-1.52-7.36-7.33-13.17-14.69-14.69v6.3h1.23l2.01,2.01Z"/><path class="cls-1" d="M42.78,39.65c.11-.21.22-.43.31-.65.09-.21.17-.43.24-.65.24-.74.37-1.53.37-2.35s-.13-1.61-.37-2.35c-.07-.22-.15-.44-.24-.65-.09-.22-.2-.44-.31-.65-.72-1.32-1.81-2.41-3.13-3.13-.21-.11-.43-.22-.65-.31-.21-.09-.43-.17-.65-.24-.74-.24-1.53-.37-2.35-.37s-1.61.13-2.35.37c-.22.07-.44.15-.65.24-.22.09-.44.2-.65.31-1.32.71-2.41,1.81-3.13,3.13-.11.21-.22.43-.31.65-.09.21-.17.43-.24.65-.24.74-.37,1.53-.37,2.35s.13,1.61.37,2.35c.07.22.15.44.24.65.09.22.2.44.31.65.71,1.32,1.81,2.41,3.13,3.13.21.11.43.22.65.31.21.09.43.17.65.24.74.24,1.53.37,2.35.37s1.61-.13,2.35-.37c.22-.07.44-.15.65-.24.22-.09.44-.2.65-.31,1.32-.72,2.41-1.81,3.13-3.13Z"/><polygon class="cls-1" points="47.52 34.18 46.84 34.18 46.76 34.18 46.76 37.82 46.84 37.82 47.52 37.82 48.2 37.82 52.41 37.82 52.41 34.18 48.2 34.18 47.52 34.18"/><polygon class="cls-1" points="23.79 34.18 19.59 34.18 19.59 37.82 23.79 37.82 24.48 37.82 25.16 37.82 25.24 37.82 25.24 34.18 25.16 34.18 24.48 34.18 23.79 34.18"/><polygon class="cls-1" points="37.82 25.16 37.82 24.48 37.82 23.79 37.82 19.59 34.18 19.59 34.18 23.79 34.18 24.48 34.18 25.16 34.18 25.24 37.82 25.24 37.82 25.16"/><polygon class="cls-1" points="34.18 46.84 34.18 47.52 34.18 48.21 34.18 52.41 37.82 52.41 37.82 48.21 37.82 47.52 37.82 46.84 37.82 46.76 34.18 46.76 34.18 46.84"/></svg>