<?xml version="1.0" encoding="UTF-8"?><svg id="Layer_1" xmlns="http://www.w3.org/2000/svg" viewBox="0 0 72 72"><defs><style>.cls-1{fill:#a7a9ac;}</style></defs><polygon class="cls-1" points="46.34 27.35 46.34 29.94 46.34 33.63 49.17 36.46 49.17 30.53 51.99 27.7 51.99 27.35 49.17 24.52 46.34 27.35"/><path class="cls-1" d="M62.09,18.06H22.86l.9.9h37.41v31.54s-2.11,2.1-2.11,2.1v-31.5H25.89l3.41,3.41h11.39v4.5h-6.88l2.45,2.45h4.43v1.13h-3.3l1.81,1.81h1.5v1.13h-.37l4.74,4.74h9.69v1.13h-8.57l1.81,1.81h6.75v1.13h-5.63l1.81,1.81h3.82v1.13h-2.7l1.81,1.81h.89v.89l4.17,4.17h.13v-.04l.02.02,3.01-3.01h-.01s.02-.01.02-.01V18.06ZM53.16,34.11l-3.99,3.99-3.99-3.99v-7.23l3.99-3.99,3.99,3.99v7.23Z"/><path class="cls-1" d="M43.3,49.07h2.92l-1.81-1.81h-1.11v-1.11l-2.62-2.62v.8h-11.77v-1.13h11.44l-1.81-1.81h-9.63v-1.13h8.51l-1.81-1.81h-6.7v-1.13h5.57l-1.81-1.81h-3.76v-1.13h2.64l-1.81-1.81h-.83v-.83l-2.75-2.75h-11.54v-4.5h7.03l-3.41-3.41h-8.34v33.03h41.37l-3.93-3.93h-4.04v-1.13ZM14.62,31.46h11.77v1.13h-11.77v-1.13ZM14.62,37.33h11.77v1.13h-11.77v-1.13ZM14.62,43.2h11.77v1.13h-11.77v-1.13ZM26.4,50.19h-11.78v-1.13h11.78v1.13ZM26.4,47.26h-11.78v-1.13h11.78v1.13ZM26.4,41.39h-11.78v-1.13h11.78v1.13ZM26.4,35.52h-11.78v-1.13h11.78v1.13ZM40.68,50.19h-11.78v-1.13h11.78v1.13ZM40.68,47.26h-11.78v-1.13h11.78v1.13Z"/><polygon class="cls-1" points="15.22 18.06 12.94 18.06 12.94 18.96 16.12 18.96 15.22 18.06"/><polygon class="cls-1" points="16.85 19.69 11.31 19.7 11.31 20.39 17.55 20.39 16.85 19.69"/><polygon class="cls-1" points="60.48 50.22 60.49 19.66 24.48 19.69 25.19 20.39 59.73 20.39 59.73 50.97 60.48 50.22"/><rect class="cls-1" x="36.52" y="7.38" width=".9" height="57.25" transform="translate(-14.63 36.69) rotate(-45)"/></svg>