<?xml version="1.0" encoding="UTF-8"?><svg id="Layer_1" xmlns="http://www.w3.org/2000/svg" viewBox="0 0 72 72"><path d="M36.07,21.74l7.62,7.62v13.81l-7.62,7.62-7.62-7.62v-13.81l7.62-7.62h0ZM30.67,42.26l5.4,5.4v-11.33l5.4-5.4v-.67l-5.4-5.4-5.4,5.4v12h0Z"/><path d="M20.47,13.33l5.6,5.6v10.15l-5.6,5.6-5.6-5.6v-10.15l5.6-5.6h0ZM16.5,28.41l3.97,3.97v-8.33l3.97-3.97v-.49l-3.97-3.97-3.97,3.97v8.82h0Z"/><path d="M20.47,37.32l5.6,5.6v10.15l-5.6,5.6-5.6-5.6v-10.15l5.6-5.6h0ZM16.5,52.41l3.97,3.97v-8.33l3.97-3.97v-.49l-3.97-3.97-3.97,3.97v8.82h0Z"/><path d="M51.53,13.33l5.6,5.6v10.15l-5.6,5.6-5.6-5.6v-10.15l5.6-5.6h0ZM47.56,28.41l3.97,3.97v-8.33l3.97-3.97v-.49l-3.97-3.97-3.97,3.97v8.82h0Z"/><path d="M51.53,37.32l5.6,5.6v10.15l-5.6,5.6-5.6-5.6v-10.15l5.6-5.6h0ZM47.56,52.41l3.97,3.97v-8.33l3.97-3.97v-.49l-3.97-3.97-3.97,3.97v8.82h0Z"/></svg>